<mxfile host="app.diagrams.net" modified="2023-07-09T06:57:49.200Z" agent="Mozilla/5.0 (Windows NT 10.0; Win64; x64) AppleWebKit/537.36 (KHTML, like Gecko) Chrome/114.0.0.0 Safari/537.36 Edg/114.0.1823.67" etag="YdOxVnqsKwdh0-RJAGU8" version="21.6.1" type="github">
  <diagram name="第 1 页" id="Qw-37vcta7j3B3pplBVY">
    <mxGraphModel dx="2727" dy="1042" grid="0" gridSize="10" guides="1" tooltips="1" connect="1" arrows="1" fold="1" page="0" pageScale="1" pageWidth="827" pageHeight="1169" math="0" shadow="0">
      <root>
        <mxCell id="0" />
        <mxCell id="1" parent="0" />
        <mxCell id="chnZoaWAUNlyMJ2FrWk6-1" value="驱动层 DRIVER" style="rounded=0;whiteSpace=wrap;html=1;strokeColor=#82b366;verticalAlign=bottom;fontSize=24;fillColor=#d5e8d4;gradientColor=#97d077;opacity=10;" vertex="1" parent="1">
          <mxGeometry x="-169" y="867" width="1225" height="323" as="geometry" />
        </mxCell>
        <mxCell id="chnZoaWAUNlyMJ2FrWk6-2" value="MavLink" style="rounded=1;whiteSpace=wrap;html=1;fontSize=18;strokeColor=#7fffd4;" vertex="1" parent="1">
          <mxGeometry x="-151" y="899" width="120" height="60" as="geometry" />
        </mxCell>
        <mxCell id="chnZoaWAUNlyMJ2FrWk6-3" value="MQTT" style="rounded=1;whiteSpace=wrap;html=1;fontSize=18;strokeColor=#7fffd4;" vertex="1" parent="1">
          <mxGeometry x="-14" y="899" width="120" height="60" as="geometry" />
        </mxCell>
        <mxCell id="chnZoaWAUNlyMJ2FrWk6-4" value="MODBUS" style="rounded=1;whiteSpace=wrap;html=1;fontSize=18;strokeColor=#7fffd4;" vertex="1" parent="1">
          <mxGeometry x="126" y="899" width="120" height="60" as="geometry" />
        </mxCell>
        <mxCell id="chnZoaWAUNlyMJ2FrWk6-5" value="WebSocket" style="rounded=1;whiteSpace=wrap;html=1;fontSize=18;strokeColor=#7fffd4;" vertex="1" parent="1">
          <mxGeometry x="266" y="899" width="120" height="60" as="geometry" />
        </mxCell>
        <mxCell id="chnZoaWAUNlyMJ2FrWk6-6" value="HTTP" style="rounded=1;whiteSpace=wrap;html=1;fontSize=18;strokeColor=#7fffd4;" vertex="1" parent="1">
          <mxGeometry x="406" y="899" width="120" height="60" as="geometry" />
        </mxCell>
        <mxCell id="chnZoaWAUNlyMJ2FrWk6-7" value="TCP" style="rounded=1;whiteSpace=wrap;html=1;fontSize=18;strokeColor=#7fffd4;" vertex="1" parent="1">
          <mxGeometry x="546" y="899" width="120" height="60" as="geometry" />
        </mxCell>
        <mxCell id="chnZoaWAUNlyMJ2FrWk6-8" value="UDP" style="rounded=1;whiteSpace=wrap;html=1;fontSize=18;strokeColor=#7fffd4;" vertex="1" parent="1">
          <mxGeometry x="684" y="896" width="120" height="60" as="geometry" />
        </mxCell>
        <mxCell id="chnZoaWAUNlyMJ2FrWk6-9" value="&lt;b&gt;驱动SDK&lt;br&gt;&lt;/b&gt;(用于快速开发&lt;br&gt;和&lt;br&gt;拓展其他驱动)" style="rounded=0;whiteSpace=wrap;html=1;fontSize=18;strokeColor=#7fffd4;" vertex="1" parent="1">
          <mxGeometry x="827" y="896" width="213" height="280" as="geometry" />
        </mxCell>
        <mxCell id="chnZoaWAUNlyMJ2FrWk6-10" value="OPC UA" style="rounded=1;whiteSpace=wrap;html=1;fontSize=18;strokeColor=#7fffd4;" vertex="1" parent="1">
          <mxGeometry x="-150" y="976" width="120" height="60" as="geometry" />
        </mxCell>
        <mxCell id="chnZoaWAUNlyMJ2FrWk6-11" value="OPC DA" style="rounded=1;whiteSpace=wrap;html=1;fontSize=18;strokeColor=#7fffd4;" vertex="1" parent="1">
          <mxGeometry x="-13" y="976" width="120" height="60" as="geometry" />
        </mxCell>
        <mxCell id="chnZoaWAUNlyMJ2FrWk6-12" value="CoAP" style="rounded=1;whiteSpace=wrap;html=1;fontSize=18;strokeColor=#7fffd4;" vertex="1" parent="1">
          <mxGeometry x="127" y="976" width="120" height="60" as="geometry" />
        </mxCell>
        <mxCell id="chnZoaWAUNlyMJ2FrWk6-13" value="LoAP" style="rounded=1;whiteSpace=wrap;html=1;fontSize=18;strokeColor=#7fffd4;" vertex="1" parent="1">
          <mxGeometry x="267" y="976" width="120" height="60" as="geometry" />
        </mxCell>
        <mxCell id="chnZoaWAUNlyMJ2FrWk6-14" value="Serial" style="rounded=1;whiteSpace=wrap;html=1;fontSize=18;strokeColor=#7fffd4;" vertex="1" parent="1">
          <mxGeometry x="407" y="976" width="120" height="60" as="geometry" />
        </mxCell>
        <mxCell id="chnZoaWAUNlyMJ2FrWk6-15" value="LwM2M" style="rounded=1;whiteSpace=wrap;html=1;fontSize=18;strokeColor=#7fffd4;" vertex="1" parent="1">
          <mxGeometry x="547" y="976" width="120" height="60" as="geometry" />
        </mxCell>
        <mxCell id="chnZoaWAUNlyMJ2FrWk6-16" value="Zigbee" style="rounded=1;whiteSpace=wrap;html=1;fontSize=18;strokeColor=#7fffd4;" vertex="1" parent="1">
          <mxGeometry x="685" y="973" width="120" height="60" as="geometry" />
        </mxCell>
        <mxCell id="chnZoaWAUNlyMJ2FrWk6-17" value="Bluetooth" style="rounded=1;whiteSpace=wrap;html=1;fontSize=18;strokeColor=#7fffd4;" vertex="1" parent="1">
          <mxGeometry x="-150" y="1057" width="120" height="60" as="geometry" />
        </mxCell>
        <mxCell id="chnZoaWAUNlyMJ2FrWk6-18" value="PLC" style="rounded=1;whiteSpace=wrap;html=1;fontSize=18;strokeColor=#7fffd4;" vertex="1" parent="1">
          <mxGeometry x="-13" y="1057" width="120" height="60" as="geometry" />
        </mxCell>
        <mxCell id="chnZoaWAUNlyMJ2FrWk6-19" value="BACnet" style="rounded=1;whiteSpace=wrap;html=1;fontSize=18;strokeColor=#7fffd4;" vertex="1" parent="1">
          <mxGeometry x="127" y="1057" width="120" height="60" as="geometry" />
        </mxCell>
        <mxCell id="chnZoaWAUNlyMJ2FrWk6-20" value="LonWorks" style="rounded=1;whiteSpace=wrap;html=1;fontSize=18;strokeColor=#7fffd4;" vertex="1" parent="1">
          <mxGeometry x="267" y="1057" width="120" height="60" as="geometry" />
        </mxCell>
        <mxCell id="chnZoaWAUNlyMJ2FrWk6-21" value="knx" style="rounded=1;whiteSpace=wrap;html=1;fontSize=18;strokeColor=#7fffd4;" vertex="1" parent="1">
          <mxGeometry x="407" y="1057" width="120" height="60" as="geometry" />
        </mxCell>
        <mxCell id="chnZoaWAUNlyMJ2FrWk6-22" value="Grove PI" style="rounded=1;whiteSpace=wrap;html=1;fontSize=18;strokeColor=#7fffd4;" vertex="1" parent="1">
          <mxGeometry x="547" y="1057" width="120" height="60" as="geometry" />
        </mxCell>
        <mxCell id="chnZoaWAUNlyMJ2FrWk6-23" value="Camera" style="rounded=1;whiteSpace=wrap;html=1;fontSize=18;strokeColor=#7fffd4;" vertex="1" parent="1">
          <mxGeometry x="685" y="1054" width="120" height="60" as="geometry" />
        </mxCell>
        <mxCell id="chnZoaWAUNlyMJ2FrWk6-24" value="数据层 DATA" style="rounded=0;whiteSpace=wrap;html=1;strokeColor=#82b366;verticalAlign=bottom;fontSize=24;fillColor=#d5e8d4;gradientColor=#97d077;opacity=10;" vertex="1" parent="1">
          <mxGeometry x="-169" y="626" width="1225" height="225" as="geometry" />
        </mxCell>
        <mxCell id="chnZoaWAUNlyMJ2FrWk6-25" value="数据接口" style="rounded=0;whiteSpace=wrap;html=1;fontSize=18;strokeColor=#7fffd4;sketch=1;curveFitting=1;jiggle=2;" vertex="1" parent="1">
          <mxGeometry x="-129" y="659.5" width="151" height="126.5" as="geometry" />
        </mxCell>
        <mxCell id="chnZoaWAUNlyMJ2FrWk6-26" value="历史数据" style="rounded=0;whiteSpace=wrap;html=1;fontSize=18;strokeColor=#7fffd4;sketch=1;curveFitting=1;jiggle=2;" vertex="1" parent="1">
          <mxGeometry x="39" y="662" width="151" height="126.5" as="geometry" />
        </mxCell>
        <mxCell id="chnZoaWAUNlyMJ2FrWk6-27" value="实时数据" style="rounded=0;whiteSpace=wrap;html=1;fontSize=18;strokeColor=#7fffd4;sketch=1;curveFitting=1;jiggle=2;" vertex="1" parent="1">
          <mxGeometry x="207" y="662" width="151" height="126.5" as="geometry" />
        </mxCell>
        <mxCell id="chnZoaWAUNlyMJ2FrWk6-28" value="数据采集" style="rounded=0;whiteSpace=wrap;html=1;fontSize=18;strokeColor=#7fffd4;sketch=1;curveFitting=1;jiggle=2;" vertex="1" parent="1">
          <mxGeometry x="375" y="659.5" width="151" height="126.5" as="geometry" />
        </mxCell>
        <mxCell id="chnZoaWAUNlyMJ2FrWk6-29" value="数据转发" style="rounded=0;whiteSpace=wrap;html=1;fontSize=18;strokeColor=#7fffd4;sketch=1;curveFitting=1;jiggle=2;" vertex="1" parent="1">
          <mxGeometry x="543" y="659.5" width="151" height="126.5" as="geometry" />
        </mxCell>
        <mxCell id="chnZoaWAUNlyMJ2FrWk6-30" value="数据映射" style="rounded=0;whiteSpace=wrap;html=1;fontSize=18;strokeColor=#7fffd4;sketch=1;curveFitting=1;jiggle=2;" vertex="1" parent="1">
          <mxGeometry x="711" y="658" width="151" height="126.5" as="geometry" />
        </mxCell>
        <mxCell id="chnZoaWAUNlyMJ2FrWk6-31" value="&lt;b&gt;指令交互&lt;/b&gt;&lt;br&gt;采集、控制等指令" style="shape=offPageConnector;whiteSpace=wrap;html=1;fontSize=18;strokeColor=#7fffd4;rounded=1;" vertex="1" parent="1">
          <mxGeometry x="890" y="647" width="149" height="240" as="geometry" />
        </mxCell>
        <mxCell id="chnZoaWAUNlyMJ2FrWk6-32" value="管理层 MANAGER" style="rounded=0;whiteSpace=wrap;html=1;strokeColor=#82b366;verticalAlign=bottom;fontSize=24;fillColor=#d5e8d4;gradientColor=#97d077;opacity=10;" vertex="1" parent="1">
          <mxGeometry x="-169" y="421" width="1225" height="198" as="geometry" />
        </mxCell>
        <mxCell id="chnZoaWAUNlyMJ2FrWk6-33" value="设备管理" style="rounded=0;whiteSpace=wrap;html=1;fontSize=18;strokeColor=#7fffd4;shadow=0;glass=0;" vertex="1" parent="1">
          <mxGeometry x="-126" y="469" width="151" height="100.75" as="geometry" />
        </mxCell>
        <mxCell id="chnZoaWAUNlyMJ2FrWk6-34" value="驱动管理" style="rounded=0;whiteSpace=wrap;html=1;fontSize=18;strokeColor=#7fffd4;shadow=0;glass=0;" vertex="1" parent="1">
          <mxGeometry x="39" y="469" width="151" height="100.75" as="geometry" />
        </mxCell>
        <mxCell id="chnZoaWAUNlyMJ2FrWk6-35" value="状态管理" style="rounded=0;whiteSpace=wrap;html=1;fontSize=18;strokeColor=#7fffd4;shadow=0;glass=0;" vertex="1" parent="1">
          <mxGeometry x="204" y="469" width="151" height="100.75" as="geometry" />
        </mxCell>
        <mxCell id="chnZoaWAUNlyMJ2FrWk6-36" value="配置管理" style="rounded=0;whiteSpace=wrap;html=1;fontSize=18;strokeColor=#7fffd4;shadow=0;glass=0;" vertex="1" parent="1">
          <mxGeometry x="368" y="469" width="151" height="100.75" as="geometry" />
        </mxCell>
        <mxCell id="chnZoaWAUNlyMJ2FrWk6-37" value="物模型管理" style="rounded=0;whiteSpace=wrap;html=1;fontSize=18;strokeColor=#7fffd4;shadow=0;glass=0;" vertex="1" parent="1">
          <mxGeometry x="531.5" y="469" width="151" height="100.75" as="geometry" />
        </mxCell>
        <mxCell id="chnZoaWAUNlyMJ2FrWk6-38" value="用户管理" style="rounded=0;whiteSpace=wrap;html=1;fontSize=18;strokeColor=#7fffd4;shadow=0;glass=0;" vertex="1" parent="1">
          <mxGeometry x="694" y="469" width="151" height="100.75" as="geometry" />
        </mxCell>
        <mxCell id="chnZoaWAUNlyMJ2FrWk6-39" value="权限管理" style="rounded=0;whiteSpace=wrap;html=1;fontSize=18;strokeColor=#7fffd4;shadow=0;glass=0;" vertex="1" parent="1">
          <mxGeometry x="858" y="469" width="151" height="100.75" as="geometry" />
        </mxCell>
        <mxCell id="chnZoaWAUNlyMJ2FrWk6-40" value="应用层 APPLICATION" style="rounded=0;whiteSpace=wrap;html=1;strokeColor=#82b366;verticalAlign=bottom;fontSize=24;fillColor=#d5e8d4;gradientColor=#97d077;opacity=10;" vertex="1" parent="1">
          <mxGeometry x="-169" y="215" width="1225" height="198" as="geometry" />
        </mxCell>
        <mxCell id="chnZoaWAUNlyMJ2FrWk6-41" value="数据开放" style="rounded=0;whiteSpace=wrap;html=1;fontSize=18;strokeColor=#7fffd4;shadow=1;glass=0;" vertex="1" parent="1">
          <mxGeometry x="-126" y="255" width="151" height="100.75" as="geometry" />
        </mxCell>
        <mxCell id="chnZoaWAUNlyMJ2FrWk6-42" value="通知服务" style="rounded=0;whiteSpace=wrap;html=1;fontSize=18;strokeColor=#7fffd4;shadow=1;glass=0;" vertex="1" parent="1">
          <mxGeometry x="39" y="255" width="151" height="100.75" as="geometry" />
        </mxCell>
        <mxCell id="chnZoaWAUNlyMJ2FrWk6-43" value="报警服务" style="rounded=0;whiteSpace=wrap;html=1;fontSize=18;strokeColor=#7fffd4;shadow=1;glass=0;" vertex="1" parent="1">
          <mxGeometry x="204" y="255" width="151" height="100.75" as="geometry" />
        </mxCell>
        <mxCell id="chnZoaWAUNlyMJ2FrWk6-44" value="订阅服务" style="rounded=0;whiteSpace=wrap;html=1;fontSize=18;strokeColor=#7fffd4;shadow=1;glass=0;" vertex="1" parent="1">
          <mxGeometry x="368" y="255" width="151" height="100.75" as="geometry" />
        </mxCell>
        <mxCell id="chnZoaWAUNlyMJ2FrWk6-45" value="流计算服务" style="rounded=0;whiteSpace=wrap;html=1;fontSize=18;strokeColor=#7fffd4;shadow=1;glass=0;" vertex="1" parent="1">
          <mxGeometry x="531.5" y="255" width="151" height="100.75" as="geometry" />
        </mxCell>
        <mxCell id="chnZoaWAUNlyMJ2FrWk6-46" value="可视化服务" style="rounded=0;whiteSpace=wrap;html=1;fontSize=18;strokeColor=#7fffd4;shadow=1;glass=0;" vertex="1" parent="1">
          <mxGeometry x="694" y="255" width="151" height="100.75" as="geometry" />
        </mxCell>
        <mxCell id="chnZoaWAUNlyMJ2FrWk6-47" value="权限管理" style="rounded=0;whiteSpace=wrap;html=1;fontSize=18;strokeColor=#7fffd4;shadow=1;glass=0;" vertex="1" parent="1">
          <mxGeometry x="858" y="255" width="151" height="100.75" as="geometry" />
        </mxCell>
        <mxCell id="chnZoaWAUNlyMJ2FrWk6-48" value="数据层 DATA" style="rounded=0;whiteSpace=wrap;html=1;strokeColor=#82b366;verticalAlign=bottom;fontSize=24;fillColor=#d5e8d4;gradientColor=#97d077;opacity=10;" vertex="1" parent="1">
          <mxGeometry x="-434" y="215" width="254" height="976" as="geometry" />
        </mxCell>
      </root>
    </mxGraphModel>
  </diagram>
</mxfile>
